Back.To.The.Sea.2012.DVDRiP.AC3-5.1.XviD-AXED

POSTER: 
http://img96.imageshack.us/img96/2817/bttspstr.jpg

IMDB: 
http://www.imdb.com/title/tt2190193/

PLOT INFO:
Kevin, a young flying fish, lives in the New York harbor. He dreams of leading his family back to Barbados-the mythical kingdom of the flying fish...

MEDIA INFO:
General
Complete name                            : Back.To.The.Sea.2012.DVDRiP.AC3-5.1.XviD-AXED.avi
Format                                   : AVI
Format/Info                              : Audio Video Interleave
File size                                : 1.35 GiB
Duration                                 : 1h 37mn
Overall bit rate                         : 1 985 Kbps

Video
ID                                       : 0
Format                                   : MPEG-4 Visual
Format profile                           : Advanced Simple@L5
Format settings, BVOP                    : 2
Format settings, QPel                    : No
Format settings, GMC                     : No warppoints
Format settings, Matrix                  : Default (H.263)
Muxing mode                              : Packed bitstream
Codec ID                                 : XVID
Codec ID/Hint                            : XviD
Duration                                 : 1h 37mn
Bit rate                                 : 1 529 Kbps
Width                                    : 720 pixels
Height                                   : 304 pixels
Display aspect ratio                     : 2.35:1
Frame rate                               : 23.976 fps
Color space                              : YUV
Chroma subsampling                       : 4:2:0
Bit depth                                : 8 bits
Scan type                                : Progressive
Compression mode                         : Lossy
Bits/(Pixel*Frame)                       : 0.291
Stream size                              : 1.04 GiB (77%)
Writing library                          : XviD 64

Audio
ID                                       : 1
Format                                   : AC-3
Format/Info                              : Audio Coding 3
Mode extension                           : CM (complete main)
Format settings, Endianness              : Big
Codec ID                                 : 2000
Duration                                 : 1h 37mn
Source duration                          : 1h 37mn
Bit rate mode                            : Constant
Bit rate                                 : 448 Kbps
Channel(s)                               : 6 channels
Channel positions                        : Front: L C R, Side: L R, LFE
Sampling rate                            : 48.0 KHz
Bit depth                                : 16 bits
Compression mode                         : Lossy
Stream size                              : 312 MiB (23%)
Alignment                                : Aligned on interleaves
Interleave, duration                     : 64 ms (1.53 video frames)
Interleave, preload duration             : 192 ms
Title                                    : VTS_01_1 T80 3_2ch 448Kbps DELAY 0ms

SOURCE:
R1 Retail DVD DISC

NOTES:
Here's a new one for the whole family featuring the voices of Christian Slater, Mark Hamill, Tom Kenny, Tim Curry and more.

P.S.
While many other groups like to rip things off of VOD and claim they are DVDRiPs, we think that is a joke.  Since this film is already on VOD we did what any respectable group should do in this case and have provided proof of the DVD source.

SOURCE PROOF:
 
http://imageshack.us/a/img545/3330/scrncp00004.png
 
http://imageshack.us/a/img706/6588/scrncp00014.png
 
http://imageshack.us/a/img7/8049/scrncp00019.png
 
http://imageshack.us/a/img713/6504/scrncp00021.png
 
http://imageshack.us/a/img202/7941/scrncp00025.png